<?xml version="1.0" ?><svg style="enable-background:new 0 0 443.798 304.644;" version="1.1" viewBox="0 0 443.798 304.644" xml:space="preserve" xmlns="http://www.w3.org/2000/svg" xmlns:xlink="http://www.w3.org/1999/xlink"><g id="_Coffee_pot"><path d="M69.506,58.653l18.158,41.931c0,0-36.022,140.637,21.964,183.687H41.248L16.5,250.886l30.75-144.965   L28.121,58.669L69.506,58.653z" style="fill:#C9711A;"/><path d="M442.3,25.412c-2.735-9.153-8.868-16.672-17.27-21.178c-8.381-4.496-18.011-5.45-27.136-2.673   L247.143,47.448c-13.814,4.208-23.186,16.144-24.962,29.642l-43.474,10.982l15.79-24.782c2.759-4.324,2.938-9.815,0.47-14.311   c-2.468-4.503-7.193-7.296-12.324-7.296H16.792c-5.031,0-9.681,2.687-12.187,7.049c-2.509,4.365-2.492,9.733,0.041,14.081   l24.672,42.353L1.211,237.968c-3.466,16.374,0.59,33.218,11.126,46.218c10.536,13,26.179,20.458,42.913,20.458h86.2   c16.734,0,32.377-7.458,42.913-20.461c10.536-13,14.589-29.844,11.126-46.197l-25.007-118.838l59.281-14.977   c2.936,3.621,6.582,6.661,10.814,8.93c5.234,2.811,10.958,4.238,16.738,4.238c3.477,0,6.977-0.518,10.402-1.562l150.751-45.888   C437.231,64.179,447.922,44.229,442.3,25.412z M157.017,69.797l-12.055,18.92H52.271l-11.023-18.92H157.017z M162.522,266.481   c-5.175,6.387-12.856,10.049-21.072,10.049h-86.2c-8.216,0-15.897-3.662-21.072-10.045c-5.172-6.383-7.162-14.654-5.464-22.692   l26.87-126.961h85.682l26.716,126.961C169.684,251.83,167.694,260.101,162.522,266.481z M410.28,42.993L259.529,88.885   c-1.905,0.58-3.916,0.381-5.659-0.556c-1.757-0.94-3.041-2.526-3.621-4.458c-1.205-4.033,1.074-8.305,5.083-9.527l150.751-45.888   c0.717-0.22,1.448-0.329,2.176-0.329c1.205,0,2.395,0.299,3.483,0.882c1.757,0.944,3.044,2.526,3.621,4.455   C416.571,37.499,414.289,41.772,410.28,42.993z" style="fill:#352517;"/></g><g id="Layer_1"/></svg>